HIERARCHY
ROOT Hips
{
	OFFSET 0.000000 83.214638 0.000000
	CHANNELS 6 Xposition Yposition Zposition Xrotation Yrotation Zrotation
	JOINT Pelvis
	{
		OFFSET 0.000000 0.000000 0.000000
		CHANNELS 3 Xrotation Yrotation Zrotation
		JOINT LeftUpLeg
		{
			OFFSET 8.479700 -4.795502 -0.379100
			CHANNELS 3 Xrotation Yrotation Zrotation
			JOINT LeftLeg
			{
				OFFSET 0.024144 -32.555107 0.112900
				CHANNELS 3 Xrotation Yrotation Zrotation
				JOINT LeftFoot
				{
					OFFSET -0.024144 -32.638630 -3.012600
					CHANNELS 3 Xrotation Yrotation Zrotation
					JOINT LeftToeBase
					{
						OFFSET 0.970200 -13.225400 11.864200
						CHANNELS 3 Xrotation Yrotation Zrotation
						End Site
						{
							OFFSET 0.000000 12.319262 0.000000
						}
					}
					JOINT LFootTongue
					{
						OFFSET 1.142400 -1.059800 6.665200
						CHANNELS 3 Xrotation Yrotation Zrotation
						End Site
						{
							OFFSET 0.000000 12.319262 0.000000
						}
					}
				}
				JOINT LeftPantLeg
				{
					OFFSET 0.918482 -16.533964 -2.284700
					CHANNELS 3 Xrotation Yrotation Zrotation
					End Site
					{
						OFFSET 0.350399 24.744368 0.000000
					}
				}
			}
		}
		JOINT RightUpLeg
		{
			OFFSET -8.479700 -4.795502 -0.379100
			CHANNELS 3 Xrotation Yrotation Zrotation
			JOINT RightLeg
			{
				OFFSET -0.023144 -32.555092 0.112900
				CHANNELS 3 Xrotation Yrotation Zrotation
				JOINT RightFoot
				{
					OFFSET 0.023144 -32.638641 -3.012700
					CHANNELS 3 Xrotation Yrotation Zrotation
					JOINT RightToeBase
					{
						OFFSET -0.970200 -13.225400 11.864200
						CHANNELS 3 Xrotation Yrotation Zrotation
						End Site
						{
							OFFSET 0.000000 12.319244 0.000000
						}
					}
					JOINT RFootTongue
					{
						OFFSET -1.142200 -1.059800 6.665200
						CHANNELS 3 Xrotation Yrotation Zrotation
						End Site
						{
							OFFSET 0.000000 12.319243 0.000000
						}
					}
				}
				JOINT RightPantLeg
				{
					OFFSET -0.919482 -16.533978 -2.284800
					CHANNELS 3 Xrotation Yrotation Zrotation
					End Site
					{
						OFFSET -0.350400 24.744419 0.000000
					}
				}
			}
		}
	}
	JOINT Spine
	{
		OFFSET 0.000000 7.722000 1.166200
		CHANNELS 3 Xrotation Yrotation Zrotation
		JOINT Spine1
		{
			OFFSET 0.000000 12.024101 0.248800
			CHANNELS 3 Xrotation Yrotation Zrotation
			JOINT Spine2
			{
				OFFSET 0.000000 11.502998 -0.491200
				CHANNELS 3 Xrotation Yrotation Zrotation
				JOINT Neck
				{
					OFFSET 0.000000 18.430702 -3.123100
					CHANNELS 3 Xrotation Yrotation Zrotation
					JOINT Head
					{
						OFFSET 0.000000 9.051102 1.034000
						CHANNELS 3 Xrotation Yrotation Zrotation
						JOINT HairB
						{
							OFFSET 0.208400 24.786102 24.822300
							CHANNELS 3 Xrotation Yrotation Zrotation
							End Site
							{
								OFFSET 0.000000 32.263779 0.000000
							}
						}
						JOINT HairA
						{
							OFFSET -7.081100 24.428299 23.196600
							CHANNELS 3 Xrotation Yrotation Zrotation
							End Site
							{
								OFFSET 0.000000 32.263779 0.000000
							}
						}
						JOINT Hat
						{
							OFFSET 16.728800 15.048294 -15.439601
							CHANNELS 3 Xrotation Yrotation Zrotation
							End Site
							{
								OFFSET 0.000000 32.263779 0.000000
							}
						}
					}
				}
				JOINT LeftShoulder
				{
					OFFSET 6.197800 13.665199 -4.064700
					CHANNELS 3 Xrotation Yrotation Zrotation
					JOINT LeftArm
					{
						OFFSET 7.778100 -0.187103 -1.709300
						CHANNELS 3 Xrotation Yrotation Zrotation
						JOINT LeftForeArm
						{
							OFFSET 22.049376 0.000000 0.000000
							CHANNELS 3 Xrotation Yrotation Zrotation
							JOINT LeftHand
							{
								OFFSET 23.009392 0.000000 0.000000
								CHANNELS 3 Xrotation Yrotation Zrotation
								JOINT LeftHandThumb1
								{
									OFFSET 3.507191 -2.063065 3.133727
									CHANNELS 3 Xrotation Yrotation Zrotation
									JOINT LeftHandThumb2
									{
										OFFSET 3.101337 -1.790558 1.790558
										CHANNELS 3 Xrotation Yrotation Zrotation
										JOINT LeftHandThumb3
										{
											OFFSET 3.058640 -1.765907 1.765906
											CHANNELS 3 Xrotation Yrotation Zrotation
											End Site
											{
												OFFSET -0.415260 3.926476 -0.049563
											}
										}
									}
								}
								JOINT LeftHandIndex1
								{
									OFFSET 11.334419 -0.901459 3.706815
									CHANNELS 3 Xrotation Yrotation Zrotation
									JOINT LeftHandIndex2
									{
										OFFSET 3.283112 0.000000 0.000000
										CHANNELS 3 Xrotation Yrotation Zrotation
										JOINT LeftHandIndex3
										{
											OFFSET 3.323853 0.000000 0.000000
											CHANNELS 3 Xrotation Yrotation Zrotation
											End Site
											{
												OFFSET -1.135597 3.097809 0.402452
											}
										}
									}
								}
								JOINT LeftHandMiddle1
								{
									OFFSET 11.335861 0.000000 0.000000
									CHANNELS 3 Xrotation Yrotation Zrotation
									JOINT LeftHandMiddle2
									{
										OFFSET 3.410492 0.000000 0.000000
										CHANNELS 3 Xrotation Yrotation Zrotation
										JOINT LeftHandMiddle3
										{
											OFFSET 3.312172 0.000000 0.000000
											CHANNELS 3 Xrotation Yrotation Zrotation
											End Site
											{
												OFFSET -1.150200 3.080154 0.400270
											}
										}
									}
								}
								JOINT LeftHandRing1
								{
									OFFSET 11.514786 -0.013176 -3.003090
									CHANNELS 3 Xrotation Yrotation Zrotation
									JOINT LeftHandRing2
									{
										OFFSET 3.053307 0.000000 0.000000
										CHANNELS 3 Xrotation Yrotation Zrotation
										JOINT LeftHandRing3
										{
											OFFSET 3.295807 0.000000 0.000000
											CHANNELS 3 Xrotation Yrotation Zrotation
											End Site
											{
												OFFSET -1.281006 3.013344 0.375733
											}
										}
									}
								}
								JOINT LeftHandPinky1
								{
									OFFSET 10.518692 -0.960396 -5.730441
									CHANNELS 3 Xrotation Yrotation Zrotation
									JOINT LeftHandPinky2
									{
										OFFSET 2.861649 0.000000 0.000000
										CHANNELS 3 Xrotation Yrotation Zrotation
										JOINT LeftHandPinky3
										{
											OFFSET 2.863380 0.000000 0.000000
											CHANNELS 3 Xrotation Yrotation Zrotation
											End Site
											{
												OFFSET -0.843597 2.711159 0.369971
											}
										}
									}
								}
							}
							JOINT LSleeve
							{
								OFFSET 6.676277 -0.344902 -1.011730
								CHANNELS 3 Xrotation Yrotation Zrotation
								End Site
								{
									OFFSET 0.000000 14.885353 0.000000
								}
							}
						}
					}
				}
				JOINT RightShoulder
				{
					OFFSET -6.197800 13.665199 -4.064700
					CHANNELS 3 Xrotation Yrotation Zrotation
					JOINT RightArm
					{
						OFFSET -7.778100 -0.187103 -1.709300
						CHANNELS 3 Xrotation Yrotation Zrotation
						JOINT RightForeArm
						{
							OFFSET -22.049376 0.000000 0.000000
							CHANNELS 3 Xrotation Yrotation Zrotation
							JOINT RightHand
							{
								OFFSET -23.009392 0.000000 0.000000
								CHANNELS 3 Xrotation Yrotation Zrotation
								JOINT RightHandThumb1
								{
									OFFSET -3.507191 -2.063065 3.133727
									CHANNELS 3 Xrotation Yrotation Zrotation
									JOINT RightHandThumb2
									{
										OFFSET -3.101337 -1.790558 1.790558
										CHANNELS 3 Xrotation Yrotation Zrotation
										JOINT RightHandThumb3
										{
											OFFSET -3.058640 -1.765907 1.765906
											CHANNELS 3 Xrotation Yrotation Zrotation
											End Site
											{
												OFFSET 0.415260 3.926476 -0.049563
											}
										}
									}
								}
								JOINT RightHandIndex1
								{
									OFFSET -11.334419 -0.901459 3.706815
									CHANNELS 3 Xrotation Yrotation Zrotation
									JOINT RightHandIndex2
									{
										OFFSET -3.283112 0.000000 0.000000
										CHANNELS 3 Xrotation Yrotation Zrotation
										JOINT RightHandIndex3
										{
											OFFSET -3.323853 0.000000 0.000000
											CHANNELS 3 Xrotation Yrotation Zrotation
											End Site
											{
												OFFSET 1.135597 3.097809 0.402452
											}
										}
									}
								}
								JOINT RightHandMiddle1
								{
									OFFSET -11.335861 0.000000 0.000000
									CHANNELS 3 Xrotation Yrotation Zrotation
									JOINT RightHandMiddle2
									{
										OFFSET -3.410492 0.000000 0.000000
										CHANNELS 3 Xrotation Yrotation Zrotation
										JOINT RightHandMiddle3
										{
											OFFSET -3.312172 0.000000 0.000000
											CHANNELS 3 Xrotation Yrotation Zrotation
											End Site
											{
												OFFSET 1.150200 3.080154 0.400270
											}
										}
									}
								}
								JOINT RightHandRing1
								{
									OFFSET -11.514786 -0.013176 -3.003090
									CHANNELS 3 Xrotation Yrotation Zrotation
									JOINT RightHandRing2
									{
										OFFSET -3.053307 0.000000 0.000000
										CHANNELS 3 Xrotation Yrotation Zrotation
										JOINT RightHandRing3
										{
											OFFSET -3.295807 0.000000 0.000000
											CHANNELS 3 Xrotation Yrotation Zrotation
											End Site
											{
												OFFSET 1.281006 3.013344 0.375733
											}
										}
									}
								}
								JOINT RightHandPinky1
								{
									OFFSET -10.518692 -0.960396 -5.730441
									CHANNELS 3 Xrotation Yrotation Zrotation
									JOINT RightHandPinky2
									{
										OFFSET -2.861649 0.000000 0.000000
										CHANNELS 3 Xrotation Yrotation Zrotation
										JOINT RightHandPinky3
										{
											OFFSET -2.863380 0.000000 0.000000
											CHANNELS 3 Xrotation Yrotation Zrotation
											End Site
											{
												OFFSET 0.843597 2.711159 0.369971
											}
										}
									}
								}
							}
							JOINT RSleeve
							{
								OFFSET -6.676277 -0.344902 -1.011730
								CHANNELS 3 Xrotation Yrotation Zrotation
								End Site
								{
									OFFSET 0.000000 14.885353 0.000000
								}
							}
						}
					}
				}
				JOINT Backpack
				{
					OFFSET 0.000000 -2.471497 36.677502
					CHANNELS 3 Xrotation Yrotation Zrotation
					End Site
					{
						OFFSET 0.000000 20.427315 0.000000
					}
				}
				JOINT Hood
				{
					OFFSET 0.000000 18.754097 -10.431000
					CHANNELS 3 Xrotation Yrotation Zrotation
					JOINT Hood1
					{
						OFFSET 0.000000 -5.011002 -7.685901
						CHANNELS 3 Xrotation Yrotation Zrotation
						End Site
						{
							OFFSET 0.000000 9.175140 0.000000
						}
					}
				}
				JOINT LHoodieString
				{
					OFFSET 5.250500 16.397697 3.089900
					CHANNELS 3 Xrotation Yrotation Zrotation
					JOINT LHoodieString1
					{
						OFFSET 0.257700 -6.364304 3.694600
						CHANNELS 3 Xrotation Yrotation Zrotation
						JOINT LHoodieString2
						{
							OFFSET 0.000000 -9.643799 2.679100
							CHANNELS 3 Xrotation Yrotation Zrotation
							End Site
							{
								OFFSET 0.000000 10.009018 0.000000
							}
						}
					}
				}
				JOINT RHoodieString
				{
					OFFSET -5.250500 16.397697 3.089900
					CHANNELS 3 Xrotation Yrotation Zrotation
					JOINT RHoodieString1
					{
						OFFSET -0.257700 -6.364304 3.694600
						CHANNELS 3 Xrotation Yrotation Zrotation
						JOINT RHoodieString2
						{
							OFFSET 0.000000 -9.643799 2.679100
							CHANNELS 3 Xrotation Yrotation Zrotation
							End Site
							{
								OFFSET 0.000000 10.009018 0.000000
							}
						}
					}
				}
			}
			JOINT LBackpack_Strap
			{
				OFFSET 15.223200 -7.719803 -6.610900
				CHANNELS 3 Xrotation Yrotation Zrotation
				End Site
				{
					OFFSET 0.000000 16.040596 0.000000
				}
			}
			JOINT RBackpack_Strap
			{
				OFFSET -15.223000 -7.719803 -6.610900
				CHANNELS 3 Xrotation Yrotation Zrotation
				End Site
				{
					OFFSET 0.000000 16.040596 0.000000
				}
			}
		}
	}
	JOINT BoyFacialAnim_Joint
	{
		OFFSET 1.000000 -82.208099 -1.550900
		CHANNELS 3 Xrotation Yrotation Zrotation
		End Site
		{
			OFFSET 0.000000 30.012791 0.000000
		}
	}
}
MOTION
Frames: 4
Frame Time: 0.016667
-0.169129 73.868301 0.175014 3.016505 -58.257334 6.570148 0.000000 0.000004 -0.000000 -35.247898 10.179403 24.280026 43.157059 -7.473689 -9.787584 -9.604578 -2.815543 -8.045158 0.000000 -0.000001 -0.000000 0.000000 -0.000001 -0.000000 0.000001 -0.000001 -0.000001 -32.836821 -8.277348 -25.536221 48.053267 2.410488 -7.553257 -19.169872 2.844954 20.705799 0.000000 0.000000 0.000000 0.000000 0.000000 0.000000 -0.000000 -0.000002 -0.000000 11.191595 0.111614 -2.787680 8.434581 0.027680 -5.592323 8.457034 0.027889 -5.591862 -21.556287 25.063284 12.062621 -0.293598 25.465684 -3.208707 0.000000 -0.000000 -0.000001 0.000000 -0.000000 -0.000001 0.000000 -0.000000 -0.000001 -6.221636 -11.503827 -4.023760 -23.061633 9.569259 -36.639812 0.046363 -43.170945 -0.010991 22.743649 -5.684984 15.979055 -1.064220 -7.954934 8.490074 2.373388 19.986138 -2.038314 -0.000001 -0.000001 -0.000001 13.340864 -1.006685 10.682269 -0.167570 0.303406 -31.105641 -0.000001 -0.000000 -0.000002 8.495444 -0.329567 -0.915314 0.231495 0.661230 -29.901854 -0.000001 0.000003 0.000006 6.111744 3.150908 -16.210928 0.047074 0.322446 -30.125506 0.000001 0.000000 0.000001 -5.636022 7.709871 -13.878619 0.224371 0.276597 -46.588379 -0.000001 -0.000001 -0.000000 0.000001 -0.000000 0.000002 -5.488236 10.658252 2.466469 -41.473879 -26.755591 30.079047 24.955764 111.862905 -23.308796 -8.702458 12.423106 -9.801927 0.264989 10.061093 -10.888513 1.383799 -17.412862 3.016264 0.000000 0.000001 -0.000001 19.443595 11.174460 -13.340181 -0.118667 -0.322702 18.035615 -0.000001 0.000001 0.000002 4.320466 2.436927 -4.811732 0.349138 -0.461225 26.890337 0.000001 0.000002 -0.000003 -7.005619 -10.695184 5.719824 0.111894 -0.089170 26.155885 -0.000001 -0.000000 0.000000 -19.433545 -20.238248 5.987849 0.223796 -0.085821 36.844578 -0.000003 -0.000001 -0.000002 0.000000 -0.000000 -0.000001 -0.000002 0.000000 -0.000001 -0.000002 0.000000 -0.000001 -0.000002 0.000000 -0.000001 -0.000002 0.000000 -0.000001 -0.000002 0.000000 -0.000001 -0.000002 -0.000001 0.000003 -0.000002 0.000000 -0.000001 -0.000002 0.000000 -0.000001 -0.000002 -0.000001 0.000003 0.000001 -0.000002 -0.000000 0.000001 -0.000002 -0.000000 0.000000 0.000004 -0.000000 
-0.442267 73.916718 0.226246 4.774601 -58.863875 8.732492 -0.000000 -0.000002 -0.000000 -35.221872 10.460931 23.599446 42.772407 -6.635095 -9.587432 -9.769920 -2.614268 -8.534424 0.000000 -0.000002 -0.000000 0.000000 -0.000002 -0.000000 0.000000 0.000001 -0.000000 -33.755444 -7.436841 -25.786891 48.215415 2.481024 -7.539738 -19.334107 2.928114 20.665294 0.000000 -0.000001 -0.000000 0.000000 -0.000001 -0.000000 -0.000002 -0.000001 -0.000000 10.572528 0.075835 -3.093514 7.278664 0.995593 -6.029104 7.868303 0.668167 -5.886732 -19.835337 24.498195 8.157676 -2.779484 23.606785 2.798136 -0.000000 0.000000 -0.000001 -0.000000 0.000000 -0.000001 -0.000000 0.000000 -0.000001 -6.438875 -13.164614 -4.289222 -20.844404 7.515356 -36.011349 -0.375288 -40.249045 -0.284900 20.711490 -9.083183 15.351146 -1.038624 -7.822554 8.542162 2.457024 20.247025 -1.940292 -0.000001 -0.000001 -0.000000 13.341815 -1.007627 10.381768 -0.167191 0.303662 -31.406234 -0.000002 -0.000000 -0.000007 8.490663 -0.326606 -1.215857 0.233156 0.662212 -30.202465 -0.000003 0.000001 0.000002 6.108708 3.154419 -16.511156 0.047221 0.324461 -30.426078 -0.000000 -0.000001 0.000001 -5.637280 7.711658 -14.177641 0.225520 0.277506 -46.888986 -0.000001 0.000002 -0.000002 -0.000003 0.000001 -0.000002 -5.541687 9.386666 2.275657 -42.475516 -27.794007 27.164166 22.803374 114.466259 -20.890216 -4.795826 10.170850 -11.609666 0.377272 9.088738 -11.243427 1.701229 -18.294561 2.663697 -0.000002 -0.000001 0.000001 19.445011 11.175367 -12.309042 -0.117721 -0.323582 19.070481 -0.000000 0.000000 0.000005 4.313796 2.427128 -3.776350 0.354730 -0.465019 27.925138 0.000000 -0.000002 -0.000002 -6.995271 -10.694684 6.754740 0.111826 -0.096154 27.190706 -0.000001 -0.000000 0.000000 -19.413698 -20.226914 7.025163 0.227312 -0.089628 37.879375 0.000001 0.000000 -0.000002 -0.000001 -0.000003 -0.000005 -0.000000 0.000001 -0.000000 -0.000000 0.000001 -0.000000 -0.000000 0.000001 -0.000000 -0.000000 0.000001 -0.000000 -0.000000 0.000001 -0.000000 0.000001 0.000001 -0.000000 -0.000000 0.000001 -0.000000 -0.000000 0.000001 -0.000000 0.000001 0.000001 -0.000000 0.000001 -0.000001 0.000000 0.000001 -0.000001 0.000000 -0.000000 -0.000002 -0.000000 
-1.047351 74.071327 0.369410 6.516957 -60.089115 10.803068 -0.000000 0.000001 -0.000000 -34.387216 10.775494 23.071839 42.129823 -5.432040 -9.242197 -10.247959 -2.135740 -9.446081 -0.000000 -0.000002 0.000000 -0.000000 -0.000002 0.000000 0.000001 0.000002 -0.000000 -34.170497 -6.547711 -25.689620 48.014966 2.702236 -7.457417 -19.579528 3.181900 20.498608 0.000000 0.000000 0.000000 0.000000 0.000000 0.000000 -0.000000 0.000001 0.000000 9.970916 0.042480 -3.384423 5.412857 1.778453 -6.941523 6.233831 0.975655 -6.719544 -17.015543 23.940354 3.257988 -3.784286 21.629768 8.240862 -0.000000 0.000000 0.000001 -0.000000 0.000000 0.000001 -0.000000 0.000000 0.000001 -6.702467 -14.957870 -4.571854 -18.021913 7.338824 -35.052555 -0.477870 -38.363315 -0.338802 19.213308 -11.154194 13.927274 -0.979496 -7.455854 8.678443 2.699621 20.954238 -1.668315 -0.000002 0.000000 0.000002 13.344381 -1.010302 9.557776 -0.166128 0.304236 -32.230450 -0.000003 0.000004 -0.000001 8.482579 -0.318397 -2.040059 0.237661 0.664818 -31.026708 -0.000000 -0.000003 0.000001 6.100530 3.163988 -17.334397 0.047622 0.330013 -31.250305 -0.000003 -0.000001 -0.000001 -5.619216 7.707103 -15.003458 0.228770 0.280040 -47.713181 -0.000000 0.000000 -0.000000 -0.000001 0.000002 -0.000000 -5.596371 8.117653 2.079302 -42.075345 -29.071119 25.529891 21.515731 116.635725 -19.361474 -0.202637 8.375949 -12.996911 0.500867 7.974822 -11.648250 2.059906 -19.306428 2.263682 0.000001 -0.000002 0.000003 19.446609 11.176479 -11.126329 -0.116624 -0.324509 20.255860 -0.000003 0.000003 0.000006 4.304660 2.415544 -2.590496 0.361291 -0.469196 29.110529 -0.000001 0.000001 -0.000002 -6.989907 -10.702579 7.938612 0.111968 -0.104141 28.376024 -0.000002 0.000001 0.000002 -19.401422 -20.220608 8.211982 0.231368 -0.093852 39.064789 0.000001 0.000000 0.000002 -0.000002 0.000000 -0.000001 -0.000001 0.000001 -0.000002 -0.000001 0.000001 -0.000002 -0.000001 0.000001 -0.000002 -0.000001 0.000001 -0.000002 -0.000001 0.000001 -0.000001 -0.000000 0.000001 -0.000001 -0.000001 0.000001 -0.000002 -0.000001 0.000001 -0.000001 -0.000000 0.000001 -0.000001 -0.000002 -0.000002 0.000002 -0.000002 -0.000002 0.000002 -0.000000 0.000001 -0.000000 
-1.931314 74.309738 0.561883 7.680549 -61.313433 12.173727 -0.000000 -0.000000 -0.000000 -32.899867 11.218416 22.802085 41.113333 -4.541644 -8.851844 -10.761511 -1.542556 -10.445284 -0.000000 -0.000000 0.000000 -0.000000 -0.000000 0.000000 -0.000001 -0.000002 0.000001 -33.659387 -5.822350 -25.276204 47.441446 2.620321 -7.332995 -19.975776 3.464926 20.401445 0.000000 -0.000001 0.000000 0.000000 -0.000001 0.000000 0.000001 -0.000001 0.000002 9.401649 0.010900 -3.651322 3.106747 1.642268 -8.093142 4.027169 1.010937 -7.900988 -14.200324 23.558226 -1.824859 -3.513575 20.287856 10.479025 0.000000 -0.000001 0.000000 0.000000 -0.000001 0.000000 0.000000 -0.000001 0.000000 -6.970880 -16.475466 -4.859277 -16.573498 10.147424 -34.139454 -0.206055 -37.784716 -0.168419 18.782569 -9.426690 9.926442 -0.892365 -6.907666 8.881331 3.057565 22.012764 -1.265167 0.000000 0.000001 0.000001 13.348084 -1.014342 8.326598 -0.164563 0.305133 -33.462022 -0.000002 0.000000 0.000004 8.470788 -0.305779 -3.271497 0.244488 0.668655 -32.258266 0.000000 0.000002 0.000002 6.099449 3.178683 -18.565231 0.052120 0.338270 -32.481788 -0.000003 -0.000001 -0.000001 -5.597877 7.702244 -16.236934 0.233578 0.283741 -48.944746 0.000000 0.000001 0.000002 0.000003 0.000001 0.000000 -5.673095 6.670777 1.984886 -39.956528 -30.758510 25.815263 19.616226 120.069617 -17.091360 4.611838 6.349255 -13.813243 0.623020 6.825561 -12.064230 2.424511 -20.352707 1.854929 -0.000001 0.000001 -0.000002 19.448243 11.177676 -9.904326 -0.115467 -0.325469 21.478865 -0.000000 -0.000002 0.000001 4.293703 2.403175 -1.366998 0.368082 -0.473340 30.333536 -0.000000 0.000000 0.000003 -6.994963 -10.712265 9.159846 0.112248 -0.112076 29.599031 -0.000001 0.000000 0.000004 -19.401333 -20.222686 9.433961 0.235624 -0.098209 40.287768 0.000001 0.000001 -0.000001 -0.000002 -0.000007 -0.000002 0.000002 0.000001 -0.000000 0.000002 0.000001 -0.000000 0.000002 0.000001 -0.000000 0.000002 0.000001 -0.000000 0.000002 0.000001 0.000000 -0.000000 -0.000001 -0.000000 0.000002 0.000001 -0.000000 0.000002 0.000001 0.000000 -0.000000 -0.000001 -0.000000 0.000001 -0.000002 0.000001 0.000001 -0.000002 0.000001 -0.000000 -0.000000 -0.000000 
